<svg xmlns:xlink="http://www.w3.org/1999/xlink" width="48" height="48" viewBox="0 0 48 48" fill="none" version="1.1" id="svg25" xmlns="http://www.w3.org/2000/svg" xmlns:svg="http://www.w3.org/2000/svg">
  <defs id="defs29"/>
  <path fill-rule="evenodd" clip-rule="evenodd" d="M3.02269 0C2.70463 0 2.36766 0.023622 2.01179 0.0697413C1.65592 0.115861 1.33007 0.210349 1.03425 0.35658C0.738434 0.502812 0.49266 0.701912 0.295819 0.953881C0.0989769 1.20697 0 1.54106 0 1.95388C0 2.71991 0.242438 3.25309 0.727313 3.55231C1.21219 3.85039 1.87055 4 2.70463 4C3.20507 4 3.64769 3.98875 4.0347 3.96513C4.4206 3.94263 4.74199 3.90101 5 3.83915V0.276715C4.84875 0.1991 4.60187 0.134983 4.26157 0.0809899C3.92015 0.0269966 3.50756 0 3.02269 0Z" transform="translate(10 26)" fill="white" id="path2" style="fill:#dc461d;fill-opacity:1"/>
  <path fill-rule="evenodd" clip-rule="evenodd" d="M38.5702 31.5418C38.2279 30.9727 37.8317 30.3917 37.3841 29.7988C36.9353 29.2058 36.4674 28.6368 35.9779 28.0915C35.4884 27.5475 34.9905 27.0476 34.4854 26.5931C33.9804 26.1373 33.4992 25.7555 33.042 25.4465V31.5418H30.7681V13.0114L33.042 12.6224V24.1783C33.4334 23.7882 33.8655 23.3587 34.3394 22.8862C34.8121 22.415 35.2765 21.9354 35.7325 21.4486C36.1897 20.9607 36.6218 20.493 37.0287 20.0456C37.4368 19.5994 37.7875 19.2045 38.0807 18.8633H40.7472C40.3714 19.2701 39.9645 19.7163 39.5241 20.2043C39.0836 20.6922 38.6276 21.1838 38.1549 21.6789C37.6809 22.1752 37.2046 22.6715 36.7235 23.1666C36.2424 23.6629 35.79 24.1306 35.3663 24.5685C35.8546 24.9431 36.3728 25.406 36.9198 25.9584C37.4655 26.5107 38.0029 27.1085 38.5331 27.7503C39.0633 28.3922 39.5648 29.0424 40.0375 29.701C40.5103 30.3595 40.91 30.9727 41.2367 31.5418H38.5702ZM27.0627 30.9323C26.1902 31.5336 24.9479 31.8342 23.3334 31.8342C22.2084 31.8342 21.3275 31.7412 20.692 31.5539C20.0553 31.3677 19.6232 31.2246 19.3958 31.1267L19.8111 29.1773C20.0708 29.2751 20.4873 29.4207 21.0582 29.6163C21.6291 29.8108 22.3879 29.9086 23.3334 29.9086C24.2621 29.9086 24.9515 29.7869 25.4003 29.5424C25.8479 29.299 26.0729 28.9089 26.0729 28.372C26.0729 27.8196 25.8527 27.3806 25.4123 27.056C24.9718 26.7303 24.2466 26.3653 23.2352 25.9584C22.7457 25.764 22.2766 25.5647 21.829 25.3607C21.3802 25.1579 20.9924 24.9181 20.6668 24.6425C20.3413 24.3657 20.0804 24.0329 19.8841 23.6427C19.689 23.2526 19.5909 22.773 19.5909 22.2039C19.5909 21.0824 20.0062 20.1924 20.838 19.5339C21.6698 18.8753 22.8032 18.546 24.2382 18.546C24.596 18.546 24.9551 18.5675 25.3141 18.6081C25.6732 18.6486 26.0071 18.6963 26.3171 18.7536C26.6271 18.8109 26.8999 18.8717 27.1357 18.9373C27.3727 19.0018 27.5558 19.059 27.6862 19.1079L27.2709 21.0574C27.0256 20.9285 26.6426 20.7937 26.122 20.6553C25.599 20.5181 24.9718 20.4489 24.2382 20.4489C23.6027 20.4489 23.0473 20.5742 22.5746 20.8259C22.1018 21.0777 21.8649 21.4726 21.8649 22.0083C21.8649 22.285 21.9175 22.5296 22.024 22.7408C22.1306 22.952 22.2933 23.1428 22.5136 23.3134C22.7338 23.4841 23.0066 23.6427 23.3334 23.7883C23.6589 23.935 24.0503 24.0889 24.5075 24.2524C25.1095 24.4803 25.648 24.7034 26.122 24.9229C26.5935 25.1424 26.9981 25.3977 27.332 25.69C27.6659 25.9823 27.9232 26.3366 28.1027 26.7506C28.2811 27.1658 28.372 27.674 28.372 28.2753C28.372 29.4457 27.9352 30.331 27.0627 30.9323ZM17.1206 31.3224C16.9255 31.3558 16.6527 31.3999 16.302 31.4572C15.9513 31.5145 15.5552 31.567 15.1147 31.6159C14.6755 31.6636 14.198 31.7089 13.6845 31.7495C13.1711 31.7901 12.6612 31.8104 12.1562 31.8104C11.4381 31.8104 10.7774 31.7376 10.1742 31.5908C9.57103 31.4441 9.04922 31.2126 8.60878 30.8953C8.16955 30.5791 7.82725 30.1604 7.5819 29.6402C7.33775 29.12 7.21448 28.4937 7.21448 27.7635C7.21448 27.0644 7.3569 26.4631 7.64294 25.9584C7.92779 25.455 8.31556 25.0481 8.80506 24.7391C9.29457 24.4313 9.86426 24.2035 10.5177 24.0567C11.1688 23.9112 11.8534 23.8372 12.5715 23.8372C12.8001 23.8372 13.0359 23.8491 13.2812 23.8742C13.5254 23.898 13.7575 23.9314 13.9778 23.972C14.198 24.0126 14.3895 24.0484 14.5522 24.0818C14.715 24.114 14.8299 24.1378 14.8945 24.1546V23.5198C14.8945 23.1464 14.8538 22.7766 14.7724 22.4115C14.6911 22.0452 14.5439 21.7207 14.3332 21.4356C14.1202 21.1516 13.8317 20.9238 13.4643 20.7532C13.0969 20.5826 12.6206 20.4967 12.0341 20.4967C11.2837 20.4967 10.6266 20.5503 10.0641 20.6553C9.50162 20.7615 9.08153 20.8713 8.80506 20.9846L8.53578 19.1079C8.829 18.9779 9.3185 18.8514 10.0031 18.7297C10.6889 18.6081 11.4297 18.546 12.2292 18.546C13.1424 18.546 13.9119 18.6653 14.5403 18.9004C15.1674 19.1366 15.6737 19.4694 16.0566 19.9001C16.4396 20.3308 16.7125 20.8426 16.8765 21.4356C17.0392 22.0297 17.1206 22.6835 17.1206 23.3982V31.3224ZM48 23.923C48 10.7112 37.2549 0 24 0C10.7451 0 0 10.7112 0 23.923C0 37.1361 10.7451 47.8473 24 47.8473C28.3541 47.8473 32.4341 46.6865 35.9551 44.6654L48 48L44.9756 35.5481C46.8989 32.1062 48 28.1441 48 23.923Z" fill="white" id="path4" style="fill:#dc461d;fill-opacity:1"/>
</svg>