<svg xmlns="http://www.w3.org/2000/svg" version="1.1" id="Capa_1" x="0" y="0" style="enable-background:new 0 0 1024 1024" xml:space="preserve" viewBox="160 65.1 704 894">
  <style>
    .st1{fill:#f1d789}.st18{fill:#caa13e}.st26{fill:#a88f33}.st57{fill:#585136}.st58{fill:#252211}.st77{fill:#6e6342}.st80{fill:#574f35}
  </style>
  <path d="m392 677-16-30 9-37 65-25-28-57 14-58 26-51 79-13 59-55 126 9 24 135-47 170-27 88-110 4-52-36-59-25-63-19z" style="fill:#e2cc85"/>
  <path class="st1" d="M585 676s-16 7-42 5c-7-10-60-15-60-15s-6-2-18 3-23 4-33 7c-10 2-21-11-29-14l-18-10-22-2-45-19-70-70-20 30-5 37 21 44 58 52 112 29 66-20 84-35 21-22z"/>
  <path d="m186 427 14-44 17-27 55-5-17 48-45 81 19 73-34 17-10-16-9-37v-40l10-50z" style="fill:#f4ecb4"/>
  <path d="m247 673-10-15s-3-7-2-13c2-6 2-7 1-9s-8-10-7-17c0-7-1-10 4-15 6-5 4-15 4-15l7 5 2-3s2 2 2 5c1-4-1-24 4-29 5-4 15 22 15 22l-6-38-15-38-26-36-2-38v-4s-12 19-15 33c-3 10 3 23 2 37-1 15-3 13 1 19s12 18 9 26c-3 7-13 2-13 2s-2 6-5 8l-4-8-1 4-3-13-7-28-4 15 2 18 6 24 7 16 6 19 5 14 4 9 4 23 19 19 9 4 7-3z" style="fill:#f3e19d"/>
  <path d="M195 391s-13 23-17 45a292 292 0 0 0 6 139c7 23 23 54 23 54l1-2s-5-8-7-16-3-19-5-23c-2-5-5-9-6-14-2-6-2-14-6-20-2-3-4-10-5-16v-31c-2-16-3-26-2-34l16-49c3-12 1-22 7-32s10-19 11-25c2-6-16 24-16 24z" style="fill:#f2e8b0"/>
  <path d="M257 382s-7 2-10 6l-9 12c-4 6-4 10-8 17l-12 21-5 30c-1 8 2 19 2 19l5-1s0 6 5 10c4 4 5-14 5-14l17-57 26-18 2-14-18-11z" style="fill:#f5eec0"/>
  <path d="M270 409s-12 0-18 5l-6 5c-5 4-10 8-12 13-3 5-6 13-7 27l-2 17c-1 7-2 12-1 16 0 8 8 12 9 21l17-9 15-61 33-20-19-21-9 7z" style="fill:#e6db9d"/>
  <path d="m272 953-73 1-39-3 3-35 7-18c1-3 3-11 0-21 2-3 7-5 13-60l5-46 4-24-1-21c2-8 10-18 10-25-1-6-3-9-6-13l-4-6s16-11 16-57l1 1 8 23 6 6 21 40 27 26 41 28 25 27 3 74-33 42-34 61z" style="fill:#e5cb7a"/>
  <path d="M284 889s1-9 8-15l2 6c1-3 11-18 32-22 22-4 27-20 27-20l46-41 52-49 64-22 29-7v7c5-1 18-3 30-8 5-2 10-3 13 0 4 3 4 12 4 17 7-2 14-8 19-7 10 1 18 12 27 12 12 0 18-8 26-14l17-11c10-7 115-39 115-39l37 2 6 40-3 104-169 88-266 41-108-28-8-34z" style="fill:#d8c173"/>
  <path class="st1" d="M172 953s9-22 14-54c4-26 0-32 1-40 2-13 16-37 17-42 1 10 4 47 14 55-2 3-6 14 7 23-2 4-7 10-4 18s6 20 5 33c-5 1-10 3-14 7s-40 0-40 0z"/>
  <path d="m338 938 59-17 2 1s2 1 2 4c3-3 7-2 9-4 1 3 2 11 8 12 5 2 11-2 17-7l18-13 5 11c7-5 18-27 35-27 2-4 8-17 23-28 16-10 25-11 37-10 5-6 11-12 18-16 2 1 7 5 14 1 7-3 15-15 25-17 9-1 16 4 16 4s30-30 51-40c-1-3-2-12 22-32 2 1 1 5 2 5l13-8c10-7 21-15 28-17 12-3 26 4 26 4l4-2 7-1c0 4 2 11 0 17l8 4c-2 3-5 10-10 14 5 2 5 4 11 6l-8 13-11 25-9 19c-2 2-9 12-14 16l32-10-51 76-92 27-45 8H354l-21-11 5-7z" style="fill:#e0cd81"/>
  <path d="m272 406-9 1c-1 1 7 3 10 4 2 1 8 6 9 9 2 4 50 23 50 23l35-2 12-16-23-20 16-47-21 4-50 30-26 10-3 4z" style="fill:#dfc57c"/>
  <path d="M347 422s2 2 5 2c7 1 14 2 16 6l17 24 31 11 2-36-33-23-38 14v2z" style="fill:#e5cc7c"/>
  <path d="M341 435s6 1 13-2 18-8 23-6c7 3 6 12 13 21 5 5 13 5 18 10 5 6 21 3 21 3l6 33-25 32-8 39h-33l-31-12-15-36 8-37 10-45z" style="fill:#d2c281"/>
  <path d="M406 437h3c-1 1-3 3-3 7 1 5 4 10 2 14l3 7c2 4 2 7 11 8l-3 3s6 5 9 10l12-3 1 1 4-1s-3-2-1-10c3-8 5-7 5-8l2-12 2-16-3-28-14-9-12-11-11 20-7 8-1 18 1 2z" style="fill:#e2c270"/>
  <path d="m441 413 3 13 1-3 2 15 2 1 2 15c1-2 5-9 13-14 3-2 7-4 11-4 6-1 11 4 18 4 18 0 34-14 46-18 8-3 16-5 21-9 3-3 7-7 11-15 6-9 12-17 17-18h-7l4-4c3-2 7-5 12-5l19 1 8-1s5 3 17 3l27 2c6 1 28-1 34-1s11 2 11 2l-20-56-70-62-42 30-65 64-62 23-13 15v22z" style="fill:#ccb360"/>
  <path d="M580 386c-2 0-5 0-5-2-3-7-5-8-7-8s-4 4-6 5c-2 0-3-5-3-5l-2-1s-11 7-18 15c-7 7-19 21-24 23-6 3-24 4-31 5-6 1-13 6-14 7s3 2 4 3l-7 2c-1 1 1 5 2 7l6-1c6 0 11 4 18 4 18 0 34-13 46-17 8-3 16-5 21-10 3-2 7-7 11-14l9-13z" style="fill:#d2b257"/>
  <path d="M325 782s-1-6-16-21l-9-10c-7-7-12-9-16-13-11-8-23-8-32-18-9-9-20-28-28-48l-9-26c0-1 2-4 5-4 2 1 2 6 3 7l4 6c4 4 9 9 12 17 0-7-3-14-3-14l26 18c13 9 18 13 21 18l16 27c4 4 59 21 59 21l25 20 13 28-10 16-19 4-31-14-11-14z" style="fill:#d2b159"/>
  <path d="M256 685s6 11 22 20a216 216 0 0 0 92 27c28 0 47-8 71-10 14-2 30-3 46-7 22-5 34-11 51-19l34-15c13-8 22-17 33-19-1 4-3 10-13 17h13l-21 15c-8 6-19 17-31 24l-20 11c-13 7-18 10-26 19h3s-11 1-18 5c-2 0-4-1-9 1l-14 5c-7 2-10 1-10 1l1 3h-12l-1 1-5 2-3 1 5 9-20 14 2 3 1 6 2 3-6 1-12 3h-5c0 2 4 9-3 17-6 7-8 8-10 13l-3-2c-2-1-5-2-6-4l-3 8c-2 5-5 10-5 14-3-2-7-7-12-6-6 1-10 9-11 11 0-2-1-3-1-1s-3 20-20 35l-1-15c-2 2-3 4-15 9-11 5-10 10-10 10s-1-8 6-16l9-13v-2l-3-2c1-1 11-5 10-15 0-8-4-12-7-16l4-4-7-6 1-4 1-4-3-8h4l-3-7-3-10h5c0-2-3-4-2-5l5 3c-1-2-3-7-6-9 2-1 7-2 12 0 5 3 6 7 6 7l7 6c5 3 12 9 22 13h11c3 0 4-1 5-2h2s-1-4-3-5h3s1-2-3-6l2-4-4-3 3-3-5-5 3-2-9-3-7-5c-2-1-5-1-7-3h7s0-2 3-2l5-1-7-4c-3-3-6-6-8-6l-8 1c-3 0-4-2-4-2s-11 1-35-13c-20-13-29-24-29-24l-6-2c-7-5-18-13-17-24z" style="fill:#c2a44d"/>
  <path class="st18" d="m550 204 5 3c4 5 6 13-3 22l8 1c-3 3-10 11-10 17s3 7 3 7-5 6-5 16l8-7c5-5 14-10 19-14l1 4s10-8 19-4c4 2 2 7 2 7s5-2 9 2l12 17 7 10 11 23c1-4 2-10 13-6 12 4 26 13 37 30s14 36 20 44c6 7 12 19 12 24s-2 21 10 64l9-43 2-27 4-81-86-71-66-48-43 4 2 6z"/>
  <path d="M708 326s-1-8-21-22c-20-13-36-13-50-24-11-9-23-30-30-36-7-7-9-26-9-26l25-21 37-53 30-34 15 21 21 24 11 49 5 71-34 51z" style="fill:#b59544"/>
  <path d="M733 411s2-16-4-32c-5-17-17-46-22-57-2-12-1-13 2-14 2-1 11-6 16-24 4-17 19-18 19-18l9-7 14 35 12 31 4 24 3 21-7 43-32 29-14-31z" style="fill:#c89d3a"/>
  <path d="M272 953s-7-14-8-20c0-5 2-9 2-9s-2-4-5-5l4-8 7-7 3-4c3 0 5 0 5-3v-6l2-2 2-2 6-1 10 3c6-1 13-5 23-3 16 3 20 14 30 20 6 4 12 2 13 2h3s3-3 5-3c3 0 3 3 5 3 5 1 14-2 19-1 2 1 5 3 5 6 1 3 1 6-2 9-5 4-10 9-11 12l4 4-6 3c-2 1-5 3-8 3-6 1-13 1-17 8-5 6-19 3-19 3l-72-2z" style="fill:#ceb052"/>
  <path d="m707 732 17-25c4-8-14-116-14-116l36-119-1-38s2-36 6-52c5 9 20 20 24 26 1-11 7-34 6-59 3 5 10 51 10 51l7 31 10 33 10 34 6 24 4 6 3 10 2 11 8 25 5 21 4 38 2 9-1 8s2 9 1 15-1 11-6 16-8 32-8 32l-9-6s2-8-2-16c-4-7-13-9-17-7-5 1-14 2-17 5-3 2-9 10-16 14-8 4-21 5-27 6-7 2-15 7-23 12-8 6-17 10-20 11z" style="fill:#cca847"/>
  <path d="M707 907s7 4 20 8c12 3 45 22 45 22l28 16 34 3 30-4s1-13-1-60-4-54-4-58l-2-76c-2-13-1-27-1-34l-7-47c-2-9-6-13-7-13l-4 19-1 16v-3l-2 6v-4c-1-1-2 0-2-2l1-4s-3 4-4 13l-3 10-4 5 3 6c1 2-2 11-3 15l-2 18c-1 5-2 7-4 9l4 1s2 12-5 22l-6 8c-5 6-9 13-9 17l-1-4-12 15c-5 7-11 7-13 9-1 2-2 5-1 7-2 1-5 1-7 7-1 4-3 7-7 9l-11 3 4 2c-1 2-7 5-13 9-6 3-9 9-10 13-2 3-4 5-8 5l5 4c-2 1-5 1-10 5-6 5-7 7-10 7z" style="fill:#c39d3c"/>
  <path d="M588 951s5-7 17-12c13-5 26-6 31-8l15-5c0 5 0 9-2 12 5 1 16-8 22-10l22-6 4-7 5 1c2 0 20-16 34-16 15 0 31 12 28 22 4-2 8-4 11-3l-1 3s8-2 10 1c2 2 1 5 6 11 5 5 3 6 3 8 2 0 12 4 21 12 9 9-73 3-73 3l-152-1-1-5z" style="fill:#d2ba6b"/>
  <path d="M826 615s-3 14-7 23l-10 21 1-8c-6 3-20 11-24 15-3 3-10 9-11 12l8-26c-6 5-33 27-47 41l-43 36-16 7-23 8 9-12c4-4 16-18 18-24 2-7 2-11 0-16l-10 2c-4 1-7 4-7 4s2-15 8-28l-12 1s10-17 27-28l-15 4-29 14c5-6 37-52 56-94 19-43 26-54 30-77 2-11 2-28 2-43 1-14 3-28 2-37 5 7 23 24 24 63 0 39-18 91-37 119 4 2 17 3 29-19 13-22 13-28 17-37l1 6s18-22 27-50c2 12 7 23-1 45-8 20-17 25-17 25s5-1 12-5c1 3 1 6 3 7l5 5 6-10c0 6-1 34 2 48 6 0 13-1 17-12-3 11-3 18-1 27l6-7z" style="fill:#c0993a"/>
  <path class="st26" d="M618 174s-6 3-17 3c-9 0-7-4-21-4-22 0-98 13-112 13l30 3 97 2 20-2 7-15h-4z"/>
  <path d="M365 365s-13 9-18 17c-6 7-8 12-14 18l4-1-1 2 4 2c-1 1-6 5-2 11 2 4 8 5 8 5s-1 4 5 3c12 0 26-6 32-4 6 1 10 2 14 10 5 7 9 8 9 8s3-7 2-17c4-9 4-18 4-18l-4-31-18-23-24 13-1 5z" style="fill:#e3c571"/>
  <path d="M387 360s2 5 9 5v7l2-2v7l1 3 1-1s1 5 5 8l1-1 1 2h-1s0 13 2 19l1-1v13l4-3c3-1 7-4 9-11l3-11s2 2 2 5c0 2 4 1 4 1v-9l5-20 4-12 21-33 38-29 33 8 27-38-47-28-46 4-40 57-33 52-6 8z" style="fill:#d8b65b"/>
  <path d="m624 278-11 5c-8 4-14 5-17 12-3 6-3 11-3 11l8-4 7 1-2 3s7 0 7 3l-3 8-7 6v7c0 3-3 8-12 19-9 10-12 17-12 17l-7-15-10 5-20-68 1-5 2-6c-3-1-4-2-7-6-4-4-8-8-14-11-1-2-2-4-7-5l-8-2 4-3-12 1h-11c-3 1-8 2-9-3-2-2-6 0-9 4-3 5-4 9-11 11 0 1 0 4-2 7l-9 11c-6 7-5 18-14 27-10 9 2-24 2-24l15-37 43-42 67-5 7 35 33 11 21 32z" style="fill:#d3ae4d"/>
  <path class="st18" d="m634 286-28-41-20-15-15-27-23-3 2 4s3 1 5 4c4 4 6 12-3 21l8 1c-3 3-10 11-10 17s3 7 3 7-5 6-5 16l7-7 20-14 1 5s10-9 19-5c4 2 2 7 2 7s5-2 9 2l12 17 7 10c4 7 8 15 11 24 0-4 1-8 7-8l-9-15z"/>
  <path d="M210 402s-2-5 0-15 6-14 7-29c1-14 10-32 10-32l26-11 18 5 5 24-23 13s-1 5-8 9c-6 5-15 8-17 13l-3 8s-7-1-10 3c-5 4-4 8-5 12z" style="fill:#f4efc8"/>
  <path d="m262 395-3 5c-2-3-6-18-6-32 0-13-1-17 2-21 3-5 16-10 14-19-2-8-9-11-18-9-6 2-11 15-18 22-5 5-11 4-12 7-2 4 0 8-1 10l-6 10c-7 11-19 26-21 39l2-16-1-2 8-26 5-21 11-36 21-37 19-22 21 2 2 30 12 58 24 30-39 27-16 1z" style="fill:#ebcc73"/>
  <path d="M275 406h-5c-1 0-3-1-2-2l2-3-1-2-3 1-3-2h3l-7-2c2-1 5-5 8-5l4-1-5-5c1-1 2-2 0-6s-2-7-1-7l4-5 3-4 6-3c3-1 5-2 6-1 2 1 1 3 1 3s6-2 11 0c5 3 17 4 17 4l4 9-28 25-12 6h-2z" style="fill:#e5c66b"/>
  <path d="m314 366-11 8c2 0 4 1 3 2l-10 9-8 12c-1 2-10 8-13 9 6 0 20-8 24-8 0 2 2 5 5 5 2 1 11 2 21-5 11-6 8-11 12-14 9-6 13-11 17-14 5-4 8-4 8-4s0-3 1-3l2 2s8-6 19-8 0-1 1-1l1-1 1 5c2-1 5-8 5-8l9-23v-21l-7 1-47 20-29 30-4 7z" style="fill:#e6bd62"/>
  <path d="m451 262 7-3c-1 3-1 6-5 12l-7 13c-4 7-4 16-7 20l4-1-4 6c-2 3-4 9-10 12-6 4-14 7-22 16l-20 23 6-16c0-5-1-11 1-17 1-7 1-12 8-23 6-12 18-51 18-51l24-8 7 17z" style="fill:#b6933f"/>
  <path d="M434 247s-8 11-10 20 0 9-1 13v9s3-6 10-10 13-7 16-11 6-10 14-14l-8-2 20-15c9-6 9-9 23-15h-11c2-3 7-5 13-10 5-6-4-14-4-14l-42 25-20 24z" style="fill:#c49937"/>
  <path d="m319 228 1-7 12-20 13-34v-46l-1-27 2-18 1-5 2-2 10 5 15 19 1 38-14 59-39 43-3-5z" style="fill:#dfc068"/>
  <path class="st26" d="M351 66s-7 0-8 27l-3 53-4 29c-2 7-2 18-6 24-1 3-5 13-13 19-9 8-22 14-24 14-3 1-21 3-29 7l-12 7c-9 9-22 24-31 43-15 28-29 108-29 108l3-6s1-7 8-19c7-13 5-27 14-51 4-9 9-21 15-31 9-16 20-30 31-38 18-13 38-15 38-15l22-15 8-15c7-12 16-25 18-44 3-28-4-46-4-63 1-17 1-29 4-32l2-2z"/>
  <path d="M351 192s9-23 13-44l3-12c2-19 3-27 0-38-2-8-10-15-14-21-3-6-5-8-4-9 0-1 3-3 7-3 3 0 10 1 17 8 6 7 11 31 11 31l5 32 13 40-51 16z" style="fill:#c99e3d"/>
  <path d="m451 178-11-2c1 2-5-4-8-2-4-1-35 2-35 2s-15-3-19-22c-3-13 2-31 0-42-2-18-6-21-7-26l-1-11h-4l-2-6c1 0 8 1 16 8 6 6 6 8 7 10 1 1 11 9 15 17s12 35 14 39l5 8c4 6 38 26 46 28l-16-1z" style="fill:#b58634"/>
  <path class="st26" d="m388 87 13 24c5 11 8 19 14 27-4-10-9-28-13-34-4-7-11-15-14-17z"/>
  <path d="M334 219s-9 2-24 9l-14 7-35 13 2 2 2 6c-1 1-17 12-13 48l8-3 2 3c1 0 5-1 9-7 0 2-2 24 11 39l8-12v-3s1-11 4-20c4-10 10-16 10-16l35-49-5-17z" style="fill:#e6c367"/>
  <path d="m301 290-5 3c0-2-1-9 4-16 5-8 17-18 21-27 2-5 1-18 20-36s27-23 27-23l31-15 38 15-19 74-15 35-58-11-44 1z" style="fill:#dcba5a"/>
  <path d="m324 270 7-9v-6s8-3 17-12c9-8 21-25 31-24 11 1 12 23 13 29 0 6 1 20 3 28 3 7-25 36-25 36l-20 14-26-56z" style="fill:#e9ce77"/>
  <path d="M346 346s6-9 2-11l7-12s4-8 15-19c11-10 17-17 19-24 2-6 2-13 2-13l4 2c1 1 10 8 9 22-2 14-7 20-7 20l-8 7c-4 3-5 6-12 6l2-1s-6-1-10 2l-15 16-8 5z" style="fill:#cdae50"/>
  <path d="M613 190s-13-5-30-5h-65c-26 0-50-9-82-10-6-4-19-18-62 12 3 0 31-6 41 6s7 33 6 38c-3 11-11 27-15 38-3 12-2 18-5 25-2 8-7 12-4 22 4-3 6-3 13-19 7-15 5-26 17-40 11-13 30-31 37-36 7-4 64-34 124-6 14-1 25-25 25-25z" style="fill:#d2a83e"/>
  <path d="m398 180-1-2-2-4c0 1-14-2-21-1-12 1-24 16-29 24s-12 21-19 27v-2l-1 1v2l1 1s12-5 27-19c16-14 28-22 34-24l11-3z" style="fill:#c29637"/>
  <path d="m671 119-6 7-24 25c-7 8-16 14-25 25l-24 27-4 12-3-2 2 4 7 8 4 9c1 0 7 2 15-11l18-27 16-23 10-21 12-22 2-11z" style="fill:#ac8132"/>
  <path class="st26" d="m688 103-14 13-12 17h3l16-15 6-11 1-4z"/>
  <path d="M685 740s0-7 3-11c4-4 14-10 23-31l10-27s-17 15-27 18l5-11-7-3c3-4 5-11 11-17 8-6 24-17 35-27 12-9 36-32 38-38l3 4-18 25c-6 8-5 13-5 13l11-5s3 12-11 30c6-2 9-1 12-3-6 4-14 9-22 23-7 14-17 31-35 41l-26 19z" style="fill:#a67a2e"/>
  <path d="M641 199s-6 13-7 24l-1 8c0 9 1 20-2 25l-2-5-5 18-2-22v-14l-3 10-4-8-4 5v-7l-1-10c1-3 4-11 11-19 9-9 18-27 20-32l14-29h8l-12 28s-7 15-11 20l-15 28 7-8 9-12z" style="fill:#8c6228"/>
  <path d="m688 102-6 12c-5 5-16 13-21 20-5 6-14 23-10 43 2-5 5-13 12-23 8-10 17-21 21-29 4-9 5-16 5-16l1-2-1-5h-1z" style="fill:#cba94c"/>
  <path d="M688 101v1l1 2-1 7-1 6c0 4 1 8-5 19l-3 7-4 8c3-2 13-8 18-7-4 2-9 5-13 11h10c9-2 19-5 28-4 9 0 5-12 5-12l-11-24-21-15-3 1z" style="fill:#be9c44"/>
  <path d="M743 282s-10-9-13-41c-4-32-3-79-3-79l-8-18s-2-13-5-17l-16-16c-3-4-7-9-10-10 2-2 7-13 28-13 20-1 27 11 29 15s12 22 15 57c4 34 4 36 3 48 0 7-2 22-6 38-4 14-7 29-14 36z" style="fill:#a17c34"/>
  <path d="M650 211s-1 1 2 2l-3 4-3 4-3 6c0 1 0 9-3 14l-4 7-4 8-1 10 2-3-4 6 9-7c7-5 17-15 29-22l-9 2c2-2 20-23 29-25l1-3-8-1-16 4-3-13-11 7z" style="fill:#b18e3e"/>
  <path d="m676 283-4 7-4-5c-3-5-7-11-18-8v-7l13-11c3-5 7-10 9-16l8-5c5-4 11-9 12-14-2 1-7 3-15 3 3-2 8-3 7-9l2-1-2-1-2-1-2 1-4 1-6 5 1-2-7 1-17 8 1-1 2-1v-2l6-11c3-4 3-9 3-9l13-6 34-8 22 1-2 16-14 27-11 24-13 15-12 9z" style="fill:#543e26"/>
  <path d="M442 340s-2 7-6 11-11 7-11 13c-1 5 7 8 7 8s-5 8-5 13l1 12-2 1s1 6 4 9c4 3 8 5 10 4l1 2 5-14c2-7 3-6 4-15s10-24 10-24l6-14-10-7-14 1z" style="fill:#b6903c"/>
  <path d="m460 353-5 7c-3 3-5 7-8 8-4 1-7 1-6 5 0 4 3 6 5 7 3 2 4 6 3 10 2-1 4-2 6-6l16-31h-11z" style="fill:#685026"/>
  <path d="M515 293s2-4 0-6c-1-2-8-3-12-6s-8-5-12-3c1-2 3-5 1-5-2-1-8 2-10 3l-7 4c0 1-2 3-3 2 0 0-1-2-2-1-2 1-8 6-9 9-1 4-4 11-12 18-8 8-12 14-10 16 3 3 4 1 4 4v7c-1 5-3 8-1 9 6 2 11-1 13 0 2 2-2 9 4 11s11-1 11-1l21-12 21-10 10-21-6-17-1-1z" style="fill:#d4b968"/>
  <path d="M496 341s-4-5 0-10c5-5 11-7 13-10l-1-1s2-4 7-6c-2-2-3-3-5-3-4 1-6 3-10 3-3 0-4-2-4-2s6-1 6-3l-2-3 13-7 3-7c1 0 9-4 12-2 3 1 1 6 1 6s10-7 15-14c4 0 6-3 9-3 4 0 10 5 12 17 0 6 2 10 0 22 0 6 0 20 2 27 1 6 5 5 5 5l-3 5c-2 2-3 7-2 9l1 4s-3 3-3 5l-5 4h-9c-2-1-3-2-2-7 0-5-20-17-20-17l-33-12z" style="fill:#cca849"/>
  <path class="st57" d="M458 392s7 10 37 10c14 0 19-2 22-3 3 0 15-5 27-19 11-13 9-19 9-19l-7-1-20 3-61 26-7 3z"/>
  <path class="st58" d="M480 394s-26 6-26-10 16-33 20-36 14-6 14-6h24l4 12-2 26-34 14z"/>
  <path d="M504 346s-5-4-16 2c-12 6-21 19-21 31-1 10 8 18 22 18 11 0 17-1 20-2l-5-6v-43z" style="fill:#c3b378"/>
  <path d="M499 349s-1-1-5 1l-11 9-4 4c-5 5-9 15-7 20 3 5 10 10 31 7l-4-41z" style="fill:#e6d89c"/>
  <path class="st58" d="M492 359s-3 5-3 13 5 21 22 22c12 0 21-19 30-26 7-6 12-6 12-6s-7-8-27-19c-19-10-41-11-52 5l23-5 9 2-14 14z"/>
  <path d="M517 369c0-1-1-2 2-3 2 0 3 0 4 2s2 3 0 4c-1 0-4 0-6-3zm-3-11h-1c1-2 2-4 4-4 3 1 2 4 2 5-1 0-3 2-4 1-2 0-1-2-1-2z" style="fill:#6f674d"/>
  <path d="M297 363s6 5 14 5c7 0 16-8 21-13l7-8 4-4 4-6-7 6-11 5-24 13-8 2z" style="fill:#ac924c"/>
  <path d="m307 304 10-4 20-3 11 5 4 16-8 17-10 7-12-19-15-19z" style="fill:#9f8e57"/>
  <path d="m292 319-3 2 1-7c1-5 5-18 11-26l6-7-3 1c1-2 6-8 11-11s7-4 13-2c5 3 6 4 10 4s8-4 8-4 1 2-2 8-15 18-15 18l-24 17-13 7z" style="fill:#eac970"/>
  <path d="M310 302s18 2 23-3l1 1v1h6l-2 2 2 1-1 3h-2l1 4c2 3 5 6 9 6 0 0 3 5-7 18l-5 6-1 5s17-7 21-21c5-16 6-30 5-44l-1-9c-3-5-9-4-12-1-4 4-11 13-20 20s-9 8-17 11z" style="fill:#d7bc6b"/>
  <path class="st57" d="M289 324s-3 2-5 9c-2 8 2 17 4 20s6 11 15 12l7-2 9-5 6-6-24-20-9-9-3 1z"/>
  <path d="m311 356 8-3c2-1-17-20-17-20l2 20 7 3z" style="fill:#453a25"/>
  <path d="m291 322-3 6 2 20c1 4 6 11 13 11 4 0 10-3 10-4 0 0-6-1-8-4l-1-10 1-6c2-2 2-9 2-9l8-15h-10l-12 8-2 3z" style="fill:#84754b"/>
  <path class="st58" d="M288 327s8-11 15-13c7-3 10-1 10-1l-4 10-6 7v3s-1 9 5 15c6 7 11 6 13 6 3 0 10-2 14-11 3-8 6-19-1-29-6-11-18-12-20-12-2 1-20 1-26 25z"/>
  <path d="M491 362c-3-1 0-9 3-12s7-5 13-6c3 0 5 2 5 3-1 3-5 7-9 10-5 4-8 7-12 5z" style="fill:#f7f7e7"/>
  <path d="M331 317c2 0 5 1 5 4 1 2-1 7-5 7s-5-4-5-5l1-3s0-3 4-3z" style="fill:#f8f6de"/>
  <path d="M300 319s-6 2-8 8c-3 5-2 10-2 12s2 7 4 9l4 3c2 0 5-4 5-6s0-11 2-16c3-5-5-10-5-10z" style="fill:#d4c38b"/>
  <path d="m301 318-3 3c1 1 4 1 5 4 2 2 2 5 1 6l3-2c2-2 4-5 6-5l3 1c2 0 4-1 4-3 1-2-3-4-5-4 0-1 1-4-1-5-2-2-7 1-9 2l-4 3z" style="fill:#e2d59d"/>
  <path d="m428 487 12-4 3 3s2 5 6 5l-4 7c0 2 2 3 2 3s-11 18 10 36l-15 6c3 0 8 1 10 3l4 4 3 4c-1-1-6-4-7-1 0 2-19 1-19 1l-32 6s1-3-3-6c-4-4-8 0-14-4-6-5-6-11-9-13 3-2 7-4 17-5v-5c1-3 5-5 3-8 2-1 3-1 7-6 5-5 7-7 10-7 3-1 5 0 11-6 5-4 3-7 3-7s3-1 2-6z" style="fill:#cbac5a"/>
  <path d="M393 488h5l39-3a236 236 0 0 1 87 13l-2 1-28-8c-7-1-29-5-42-4-11 0-16-1-25 1l-31 2c-4-1-3-1-3-2z" style="fill:#d6bc6f"/>
  <path d="M457 551s17 9 22 20c5 8-2 12-2 12s9 0 8 5c-1 3-16 12-26 17l-16 5c-5 0-18-2-21 2s-2 8-1 9l8 1s-2 4-15 4c-14 1-17 2-18 3-1 2 3 1 9 2l15 1s-3 3-10 5c-9 2-22 4-26 6l6 4-8 3 2 2s-6 8-10 10-27 12-35 10c-19-5-21-26-26-28-7-2-11 3-17-1l7-4-19-12-6-11-12-20c-7-14-8-21-15-29l6-1 58 19 104 3 27-38 11 1z" style="fill:#dfc677"/>
  <path d="m304 610 2 2 7 5c1-1 3-3 6 0 4 3 8 1 11 2l3 1 5-3 8-2 7-1c2 1 8 8 33-2 24-10 30-11 34-9 0-1 1-3 7-3l-5-11-28-10h-16l-46 9-26 14-2 8z" style="fill:#c4a859"/>
  <path d="M288 594s1 4 7 8l9 8 2-4 3-4c3-1 11 1 12 1 2 0 1-3 3-3l6 2 5-1s1-7 5-10c5-4 11-2 13-2 0 2 0 5 3 5h7c2 1 6 0 7 5 2 0 5-1 4-5l6-7 4-4c2 0 6-1 10 3l-2 3 3 3 3 4h15l14 4h2c2 0 4 1 2-2 1 1 2 2 4 1 1-2 2-3 5-4 3 0 5 0 6-3 2-5-4-5-4-5l6-5c3-4 8-9 9-14 1-10-9-12-9-12l-49 15-59-3-52 26z" style="fill:#927d49"/>
  <path class="st77" d="m244 452-2 7-2 7c0 4-10 37-7 48 4 12 11 16 15 25l2 5 1 16c1 2 2 5 5 7 4 5 12 10 15 13 5 5 12 15 20 16 5 1 11-1 17-4l12-10 11-3c7-2 13-2 17-1 6 1 20 6 27 6l18-3 34-12 14-3c8-1 14-4 18-8-3-3-6-7-22-7-18 0-39 10-49 12-11 1-15 3-27-1-11-5-11-7-11-7s-12-9-17-30 0-37 13-51c3-4 2-7 2-7s9-12 7-23c-3-10-19-8-19-8l-92 16z"/>
  <path d="m258 488-1 4c0 2 1 5 7 11s5 12 5 12 3 1 10-3c6-3 8 2 8 2l5-1 5-2s7 7 14 10c5 3 8 5 11 3 3-1 3-5 2-7l-2-4c-2-2-5-5-5-8 0-5 5-12 4-13-1-2-5-2-14 1s-49-5-49-5z" style="fill:#39331f"/>
  <path d="M279 524s-4-5-3-26l6 1s2 16-3 25z" style="fill:#292311"/>
  <path class="st58" d="m247 436 1-1c-1 3-8 14-3 33 6 19 21 32 40 33 18 1 28-8 39-22l13-16c7-7 12-9 12-16 0-14-14-21-36-27-21-6-40-6-50-1-10 4-14 9-16 17z"/>
  <path class="st80" d="M335 513s-2-2-5-1-3 6-3 6l4-1 4-4z"/>
  <path d="m341 519-2-3 2-1 2 2 3 2c0 2-2 5-3 5-3 0-2-4-2-5zm15-2h-3l2-1 2-1h1l3-1 1 2 1 2-5 2c-2-1-1-3-2-3zm5-14h-3l2-1 2-1h4v1l1 3s-2 2-4 1c-2 0-2-2-2-3zm14 10v1l-6 2h-5c0-1 2-3 4-3l2-1 5-1 2 2h-2zm5-25-2 3-2-1 1-2-1-1 3-2 3-1 3 1-3 3h-2zm-18 48-2 1h2l2 1 3-1 1-2-2-2-2 1h-2c-2 1-1 0 0 1v1zm-9 8 2-1 3 4-3 1-2-2h1l-1-2zm-6-12 1-1h1l1-1h2l1 3c0 1-1 3-3 3l-5 1-1-3 3-2zm13-39-1 3h-2v-3h-1c-1-1 0-2 1-3l2-2h3v3l-2 2zm-12 12 2 3-2 1-1-2-2 1v-7c0-1 1-2 2-1l2 3-1 2z" style="fill:#82764f"/>
  <path class="st77" d="m349 533-1 1v1h2l-1-2z"/>
  <path class="st80" d="m336 530-3 3-6 7 2-2s-3 1-4 4 6 5 10 6l6 2-4-8c-2-4-3-4-2-6l2-4-1-2z"/>
  <path class="st58" d="M245 536h2c1 0 14-4 27-4l29 5c16 4 36 13 50 18l9 5 17 5c7 1 14-2 21-3l38-5 13-3c1 0-10 10-36 14a114 114 0 0 1-50-2l-27-8c-8-3-17-4-28-6-26-5-55-10-65-16z"/>
  <path d="m228 511-7 8-8 7-8 8-8 7 8-8 8-7 7-8 8-7zm2 14-9 19-21 39" style="fill:#cfb66c"/>
  <path d="M258 590s-8 11-7 24l7-24zm8 11-5 42c3-16 3-14 5-42zm52 44s-12 35-12 45l12-45z" style="fill:#dec270"/>
  <path d="m346 588 33 59c-3-14-12-39-33-59z" style="fill:#cbaf59"/>
  <path d="M549 682c3-2 10-13 15-16 6-3 10-3 15-9s6-9 17-14c16-6 5-15 5-15l5-4c4-3 9-7 9-13-1-11-3-26-12-35 9-2 25-3 35-6 12-3 17-7 17-7s-7-12 4-23c11-12 20-19 27-31-8-1-19-5-49 6l5 2s-18 5-25 11c-11 10-12 17-25 23-12 6-25 5-35 9-10 5-12 9-16 11 1 1 0 3 2 4-1 2-7 11-13 11 1 2 6 3 6 3s-4 3-13 4c5 4 9 10 21 17-1 2-5 5-3 9s6 9 24 13c-9 0-20 3-34 1-15-2-18-3-27-1l6 3c-2 1-17-1-22 5-6 7-8 19-8 27-2 1-5 3-4 8 2 5 9 7 13 10 5 3 5 5 10 4 4-1 11-6 15-6s6 3 6 3 11-5 12-4l1 8c1 1 13-6 16-8z" style="fill:#ecd592"/>
</svg>