<?xml version="1.0" encoding="UTF-8" standalone="no"?>
<svg
   xmlns:dc="http://purl.org/dc/elements/1.1/"
   xmlns:cc="http://creativecommons.org/ns#"
   xmlns:rdf="http://www.w3.org/1999/02/22-rdf-syntax-ns#"
   xmlns:svg="http://www.w3.org/2000/svg"
   xmlns="http://www.w3.org/2000/svg"
   viewBox="0 0 68 68"
   height="68"
   width="68"
   xml:space="preserve"
   id="svg2"
   version="1.1"><metadata
     id="metadata8"><rdf:RDF><cc:Work
         rdf:about=""><dc:format>image/svg+xml</dc:format><dc:type
           rdf:resource="http://purl.org/dc/dcmitype/StillImage" /></cc:Work></rdf:RDF></metadata><defs
     id="defs6" /><g
     transform="matrix(1.3333333,0,0,-1.3333333,0,68)"
     id="g10"><g
       transform="scale(0.1)"
       id="g12"><path
         id="path14"
         style="fill:#f20019;fill-opacity:1;fill-rule:nonzero;stroke:none"
         d="M 150.941,503.98 C 72.3789,503.98 8.01172,439.301 8.01172,360.738 c 0,-41.437 18.03908,-78.75 46.47658,-104.879 25.5117,23.52 59.2617,38.161 96.4527,38.161 -37.621,0 -66.8004,29.101 -66.9215,66.718 v 0.242 c 0.1211,37.61 29.2615,66.95 66.9215,66.95 37.77,0 66.911,-29.219 66.911,-66.95 0,37.11 14.449,71.008 37.886,96.481 -26.129,28.398 -63.398,46.519 -104.797,46.519 z" /><path
         id="path16"
         style="fill:#5ce523;fill-opacity:1;fill-rule:nonzero;stroke:none"
         d="m 360.82,503.98 c -78.55,0 -142.968,-64.449 -142.968,-143 V 294.02 H 150.941 C 72.4219,294.02 8.23828,229.609 8.23828,151.02 8.23828,72.4219 72.4219,8.01172 150.941,8.01172 c 41.329,0 78.86,17.92968 105.079,46.24998 26.171,-28.3203 63.468,-46.24998 104.8,-46.24998 78.559,0 143.16,64.41018 143.16,143.00828 0,41.48 -18.16,78.941 -46.71,105.109 28.351,26.211 46.48,63.441 46.48,104.851 0,78.59 -64.41,143 -142.93,143 z m 0,-76.05 c 37.7,0 66.91,-29.18 66.91,-66.95 0,-37.781 -29.21,-66.96 -66.91,-66.96 h -66.871 v 66.96 c 0,37.731 29.141,66.95 66.871,66.95 z M 150.941,217.969 h 66.911 v -69.18 c 0,-36.758 -29.84,-64.7304 -66.911,-64.7304 -37.703,0 -66.6793,29.1794 -66.6793,66.9614 0,37.769 28.9763,66.949 66.6793,66.949 z m 143.008,0 h 66.871 c 37.7,0 67.149,-29.219 67.149,-66.949 0,-37.739 -29.418,-66.9614 -67.149,-66.9614 -36.761,0 -66.871,27.4614 -66.871,63.9924 z" /></g></g></svg>